<?xml version="1.0" encoding="UTF-8"?>
<svg id="tunnels-academic" data-name="a2" xmlns="http://www.w3.org/2000/svg" viewBox="0 0 2067.54 1226.6">
  <defs>
    <style>
      .cls-1 {
        fill: #f26a21;
        stroke-width: 0px;
      }
    </style>
  </defs>
  <g id="Academic Tunnels==0,0,-10==" data-name="Layer 2">
    <g>
      <path class="cls-1" d="M2047.73,670.69h.01s-11.91-123.16-11.91-123.16c0,0-32.11,4.62-60.33,19.5s-32.11,22.32-47.38,41.56c-15.28,19.24-21.75,41.57-21.75,41.57l-102.54-39.26v-17.7l-20.26-.18v-44.48h-14.33v44.35l-36.32-.33v-48.03h-14.33v47.9h-.2v82.2h-310.67v-65.1h24.63v-149.52h-4.11l-10.95-9.15v-29.84h12.32v-5.42h5.47l28.74-43.4v-10.07h.05v-135.66h26v-16.27l16.42-21.7h15.05v-1.36h3.81l.03-4.34.55-3.2,1.12-3.03,4.83-4.35,7.45-1.36v-5.42h.62l-.04,6.09-3.98.34-4.03,1.35-2.38,1.49-2.81,3.22-.53,3.71v33.26l5.47,8.14h20.53l6.07-9.9v-57.6l-1.13-.03v-25.31h-2.74v-5.42h5.47v88.15h17.79V80.01h-17.79v21.7h-5.47v-4.07h1.9l-.07-35.55-.26-45.93-5.31-7.95h-19.01l-4.82,6.93.23,25.57-5.53-.02V0h-123.31v34.22h88.21l33.68,48.21v59.35l-39,30.7h-83.47c1.24,17.87,1.76,35.81,1.26,53.99h47.38v124.04h-.05v16.27l-13.69,21.7-2.74-1.36v-5.42h-10.95v17.63h4.11v1.36h-49.27.02v-1.36h5.47v-17.63h-12.32v5.42l-1.37,1.36-13.69-21.7v-16.9h.05v-66.63h-17.77v35.8h-.05v46.39h-6.84v14.92h12.32l23.27,35.26h5.47v5.42h10.95v28.48l-9.58,9.49h-4.11v150.53h24.63v234.62h-6.26v17.63h30.11v-17.63h-6.06v-151.89h97.17v59.67h17.79v-59.67h195.71v5.42h17.79v-25.2l.86-38.49,62.14,11.55,98.65,36.18s-6.47,39.26-.78,68.51,10.69,39.44,24.86,60.81c11.39,17.19,36.25,37.72,47.38,44.64s50.49,20.01,50.49,20.01c0,0,12.43-44.39,21.23-94.93,8.8-50.55,10.88-74.67,10.88-74.67l15.53-1.54.13-32.94-19.81-.93Z"/>
      <path class="cls-1" d="M1256.67,62.35l-15.93.04v35.26h2.74v4.07h-5.47v-23.05h-17.79v23.68h-694.71v18.99h-4.11v-46.11h-78.01v4.07h.05v2.71h-.05v39.33h-27.33v29.84h136.81v320.05h-109.49v5.42l.05,2.71v33.9h109.43v238.68h-1.37v127.39h-.09v10.85l-488.5.09H2.74v2.99H0v26.17h2.74v11.53h1.37v1.36h10.95v-1.36h2.74l11.63-11.53h710.98v110.84h-8.21v24.1l19.16.02v105.76l-.08,9.06-12.24.13h-328.87l.1,23.09h328.77v.27h46.53v33.9h247.72v-1.36h2.74v1.36h30.11v-4.07h1.37v-61.03h1.37v-5.42h-16.42l-1.37,1.36-6.84,16.27-28.74-6.78v-6.78l-9.58-1.36-1.37,14.92-42.43-6.78-1.37-6.78h-9.58l-75.27-47.47,10.95-59.67h12.32l2.74-1.36v-21.39h-135.48l-.04-110.84h316.58v7.7h24.86v-7.7h1.55v-26.17h-71.98v-2.99h-243.61v-10.85l-217.61-.08-.06-14.9,18.51-.13-1.29-61.58h-17.22l.06-4.75,8.21.06v-46.11h-8.21v-2.71h6.84V126.75l637.23-.14v83.6h17.79v-6.16h16.69v-23.05h-16.69v-17.25h2.74v1.71h18.17l.09,3.53s5.6-.56,8.47,4.07c1.73,2.69,1.76,6.47,1.76,6.47l3.04.19.11,7.4,3.95.04v39.33h57.48v56.76h17.77v-56.78h47.05c.5-18.18-.02-36.12-1.26-53.99h-89.57l-21.46-39.27v-61.99l34.77-37h76.84V0h-121.67v40.68h-4.77l-.26-26.5-5.18-7.64-19.77-.09-5.07,7.74-.08,46.9,15.47,1.26Z"/>
    </g>
  </g>
</svg>