<?xml version="1.0" encoding="UTF-8"?>
<svg id="Layer_2" data-name="Layer 2" xmlns="http://www.w3.org/2000/svg" viewBox="0 0 1215.2 720.93">
  <defs>
    <style>
      .cls-1 {
        fill: #f26a21;
        stroke-width: 0px;
      }
    </style>
  </defs>
  <g id="Layer_1-2" data-name="Layer 1">
    <path class="cls-1" d="M1203.56,394.2l-7-72.39s-18.87,2.72-35.46,11.46c-16.59,8.75-18.87,13.12-27.85,24.43-8.98,11.31-12.78,24.43-12.78,24.43l-60.27-23.07v-10.41l-50.22-.45v44.33s0,3.99,0,3.99h-182.6v-38.26h14.48v-87.88h-2.41l-6.44-5.38v-17.54h7.24v-3.19h3.22l16.89-25.51v-5.92h.03v-79.74h15.28v-9.57l9.65-12.75h8.85v-.8h2.24l.02-2.55.33-1.88.66-1.78,2.84-2.56,4.38-.8v-3.19h.36l-.02,3.58-2.34.2-2.37.79-1.4.88-1.65,1.89-.31,2.18v19.55l3.22,4.78h12.07l3.57-5.82v-33.86l-.66-.02v-14.87h-1.61v-3.19h3.22v51.81h10.46V47.03h-10.46v12.75h-3.22v-2.39h1.12l-.04-20.9-.15-26.99-3.12-4.67h-11.17l-2.83,4.07.14,15.03h-3.25V0h-143.99v23.91h-2.8l-.15-15.57-3.04-4.49-11.62-.05-2.98,4.55-.05,28.16,8.78.05.31-3.5,1.09-.12-1.09.7v3.02l-9.36.02v20.72h1.61v2.39h-3.22v-13.55h-10.46v13.92h-408.32v11.16h-2.41v-27.1h-45.85v2.39h.03v1.59h-.03v23.12h-16.06v17.54h80.41v188.11h-64.35v3.19l.03,1.59v19.93h64.32v140.29h-.8v74.87h-.05v6.38l-287.11.05H1.61v1.76H0v15.38h1.61v6.78h.8v.8h6.44v-.8h1.61l6.84-6.78h417.88v65.15h-4.83v14.16h11.26v62.17l-.05,5.33-7.19.07h-193.29l.06,13.57h193.24v.16h27.35v19.93h145.59v-.8h1.61v.8h17.7v-2.39h.8v-35.87h.8v-3.19h-9.65l-.8.8-4.02,9.57-16.89-3.99v-3.99l-5.63-.8-.8,8.77-24.94-3.99-.8-3.99h-5.63l-44.24-27.9,6.44-35.07h7.24l1.61-.8v-12.57h-79.63l-.02-65.15h186.07v4.53h14.61v-4.53h.91v-15.38h-42.31v-1.76h-143.18v-6.38l-127.9-.05-.04-8.76,10.88-.07-.76-36.19h-10.12l.04-2.79,4.83.04v-27.1h-4.83v-1.59h4.02V74.5l374.53-.08v49.14h10.46v-3.62h9.81v-13.55h-9.81v-10.14h1.61v1h10.68l.05,2.08s3.29-.33,4.98,2.39c1.02,1.58,1.04,3.8,1.04,3.8l1.79.11.06,4.35,2.32.02v23.12h33.78v54.4h-.03v27.27h-4.02v8.77h7.24l13.67,20.72h3.22v3.19h6.44v16.74l-5.63,5.58h-2.41v88.48h14.48v137.9h-3.68v10.36h17.7v-10.36h-3.56v-89.27h57.11v35.07h10.46v-35.07h115.03v3.19h10.46v-14.81l.5-22.62,36.52,6.79,57.98,21.26s-3.8,23.07-.46,40.26c3.35,17.19,6.28,23.18,14.61,35.74,6.69,10.1,21.3,22.17,27.85,26.24,6.54,4.07,29.68,11.76,29.68,11.76,0,0,7.3-26.09,12.48-55.8,5.17-29.71,6.39-43.88,6.39-43.88l9.13-.91.08-19.36-11.64-.55ZM730.88,76.52h-1.61v7.62h-1.61v-10.81h3.22v3.19ZM807.27,235.51v-.8h3.22v-10.36h-7.24v3.19l-.8.8-8.04-12.75v-9.93h.03v-72.53h55.5v72.9h-.03v9.57l-8.04,12.75-1.61-.8v-3.19h-6.44v10.36h2.41v.8h-28.96Z"/>
  </g>
</svg>