<?xml version="1.0" encoding="utf-8"?>
<!-- Generator: Adobe Illustrator 28.1.0, SVG Export Plug-In . SVG Version: 6.00 Build 0)  -->
<svg version="1.1" id="Layer_1" xmlns="http://www.w3.org/2000/svg" xmlns:xlink="http://www.w3.org/1999/xlink" x="0px" y="0px"
	 viewBox="0 0 1920 1080" style="enable-background:new 0 0 1920 1080;" xml:space="preserve">
<style type="text/css">
	.st0{fill:none;stroke:#FFFFFF;stroke-width:2.8383;stroke-miterlimit:10;}
	.st1{fill:#7C878E;}
	.st2{fill:none;stroke:#FFFFFF;stroke-width:3.142;stroke-miterlimit:10;}
	.st3{fill:#F26A21;}
	.st4{fill:none;}
</style>
<line class="st0" x1="1656.3" y1="615.3" x2="1656.3" y2="637.9"/>
<rect x="508.2" y="1666" class="st1" width="338.3" height="15.9"/>
<rect x="1801.9" y="984.3" class="st2" width="14.3" height="45.8"/>
<rect x="1615.1" y="1247.6" class="st3" width="7" height="13"/>
<rect x="1338.8" y="570.5" class="st3" width="14" height="7.4"/>
<rect x="1637.9" y="645.6" class="st3" width="15.7" height="36.3"/>
<polyline class="st3" points="615.5,645.2 615.5,652.6 538.6,652.6 538.6,645.2 "/>
<path class="st3" d="M2791.4,1636.5l-11.9-123.2c0,0-32.1,4.6-60.3,19.5c-28.2,14.9-32.1,22.3-47.4,41.6
	c-15.3,19.2-21.7,41.6-21.7,41.6l-102.5-39.3V1559l-20.3-0.2v-44.5h-14.3v44.4l-36.3-0.3v-48h-14.3v47.9l-0.2,0l0,75.4v6.8h-310.7
	v-65.1h24.6V1479v-4.1v-49.2h-4.1l-10.9-9.2v-29.8h12.3v-5.4h5.5l28.7-43.4v-10.1h0v-135.7h26V1176l16.4-21.7h15.1v-1.4h3.8l0-4.3
	l0.6-3.2l1.1-3l4.8-4.4l7.5-1.4v-5.4h0.6l0,6.1l-4,0.3l-4,1.3l-2.4,1.5l-2.8,3.2l-0.5,3.7v33.3l5.5,8.1h20.5l6.1-9.9v-57.6l-1.1,0
	V1096h-2.7v-5.4h5.5v88.2h17.8v-132.9h-17.8v21.7h-5.5v-4.1h1.9l-0.1-35.6l-0.3-45.9l-5.3-8h-19l-4.8,6.9l0.2,25.6l-5.5,0v-40.7
	h-245v40.7h-4.8L2015,980l-5.2-7.6l-19.8-0.1l-5.1,7.7l-0.1,47.9l14.9,0.1l0.5-6l1.9-0.2l-1.9,1.2v5.1l-15.9,0v35.3h2.7v4.1h-5.5
	v-23.1h-17.8v23.7h-634.5h-2.7h-13h-44.5v19h-4.1V1041h-23.3h-1.4h-24.6h-28.7h-0.1v4.1h0.1v2.7h-0.1v28.5v1.4v9.5h-27.3v29.8h136.8
	V1437h-31.5h-9.4h-68.6v5.4l0.1,2.7v33.9h53.3h1.4h2.5h11.4h9.4h31.5v54.2v31.7v152.7h-1.4v127.4h-0.1v10.8l-488.5,0.1h-1.4h-58.8v3
	h-2.7v26.2h2.7v11.5h1.4v1.4h10.9v-1.4h2.7l11.6-11.5h711V1996h-8.2v24.1l19.2,0v105.8l-0.1,9.1l-12.2,0.1h-320.6h-8.3l0.1,23.1
	h328.8v0.3h46.5v33.9h247.7v-1.4h2.7v1.4h30.1v-4.1h1.4V2130v-2.7h1.4v-5.4h-5.5h-1.4h-9.6l-1.4,1.4l-6.8,16.3l-28.7-6.8v-6.8
	l-9.6-1.4l-1.4,14.9l-42.4-6.8l-1.4-6.8h-9.6l-75.3-47.5l10.9-59.7h12.3l2.7-1.4V1996h-135.5l0-110.8h32.9h16.4h38.3h16.4h38.3h15.1
	h93.1h16.4h49.7v7.7h24.9v-7.7h1.6V1859h-1.6h-24.9H1781v-3h-243.6v-10.8l-217.6-0.1l-0.1-14.9l18.5-0.1l-1.3-61.6h-17.2l0.1-4.7
	l8.2,0.1v-46.1h-8.2v-2.7h6.8v-150v-31.7v-440.8l637.2-0.1v83.6h17.8v-6.2h16.7v-23.1h-16.7v-17.3h2.7v1.7h18.2l0.1,3.5
	c0,0,5.6-0.6,8.5,4.1c1.7,2.7,1.8,6.5,1.8,6.5l3,0.2l0.1,7.4l3.9,0v39.3h57.5v92.6h0v46.4h-6.8v14.9h12.3l23.3,35.3h5.5v5.4h10.9
	v28.5l-9.6,9.5h-4.1v50.2v4.1v96.3h24.6v71.9v19v143.8h-6.3v17.6h30.1v-17.6h-6.1V1658h97.2v59.7h17.8v-1.4V1658H2462v5.4h17.8
	v-25.2l0.9-38.5l62.1,11.5l98.7,36.2c0,0-6.5,39.3-0.8,68.5c5.7,29.3,10.7,39.4,24.9,60.8c11.4,17.2,36.2,37.7,47.4,44.6
	s50.5,20,50.5,20s12.4-44.4,21.2-94.9c8.8-50.5,10.9-74.7,10.9-74.7l15.5-1.5l0.1-32.9L2791.4,1636.5z M1987.2,1096h-2.7v13h-2.7
	v-18.4h5.5V1096z M2051.5,1138.3L2030,1099v-62l34.8-37h165l33.7,48.2v59.4l-39,30.7H2051.5z M2117.1,1366.5v-1.4h5.5v-17.6h-12.3
	v5.4l-1.4,1.4l-13.7-21.7v-16.9h0v-123.4h94.4v124h0v16.3l-13.7,21.7l-2.7-1.4v-5.4h-10.9v17.6h4.1v1.4H2117.1z"/>
<rect x="-101.9" y="97.4" class="st4" width="2523.6" height="2005.2"/>
</svg>
