<?xml version="1.0" encoding="utf-8"?>
<!-- Generator: Adobe Illustrator 28.1.0, SVG Export Plug-In . SVG Version: 6.00 Build 0)  -->
<svg version="1.1" id="Layer_2_00000121264121340182921930000005798542935213069741_"
	 xmlns="http://www.w3.org/2000/svg" xmlns:xlink="http://www.w3.org/1999/xlink" x="0px" y="0px" viewBox="0 0 2067.5 1226.6"
	 style="enable-background:new 0 0 2067.5 1226.6;" xml:space="preserve">
<style type="text/css">
	.st0{fill:#F26A21;}
</style>
<g>
	<path class="st0" d="M2047.7,670.7L2047.7,670.7l-11.9-123.2c0,0-32.1,4.6-60.3,19.5s-32.1,22.3-47.4,41.6
		c-15.3,19.2-21.8,41.6-21.8,41.6l-102.5-39.3v-17.7l-20.3-0.2v-44.5h-14.3v44.3l-36.3-0.3v-48h-14.3v47.9h-0.2v75.4v6.8h-310.7
		v-65.1h24.6V460h-4.1l-10.9-9.1V421h12.3v-5.4h5.5l28.7-43.4v-10.1h0.1V226.5h26v-16.3l16.4-21.7h15.1v-1.4h3.8l0-4.3l0.6-3.2
		l1.1-3l4.8-4.3l7.4-1.4v-5.4h0.6l0,6.1l-4,0.3l-4,1.3l-2.4,1.5l-2.8,3.2l-0.5,3.7v33.3l5.5,8.1h20.5l6.1-9.9v-57.6l-1.1,0v-25.3
		h-2.7v-5.4h5.5v88.2h17.8V80h-17.8v21.7h-5.5v-4.1h1.9l-0.1-35.5l-0.3-45.9l-5.3-8h-19l-4.8,6.9l0.2,25.6l-5.5,0V0H1398
		c0,11.4,0,22.9,0,34.2h88.2l33.7,48.2v59.4l-39,30.7h-83.5c1.2,17.9,1.8,35.8,1.3,54h47.4v124h-0.1v16.3l-13.7,21.7l-2.7-1.4v-5.4
		h-10.9v17.6h4.1v1.4h-49.3h0h0v-1.4h5.5v-17.6h-12.3v5.4l-1.4,1.4l-13.7-21.7v-16.9h0.1v-66.6c-5.9,0-11.8,0-17.8,0V319h-0.1v46.4
		h-6.8v14.9h12.3l23.3,35.3h5.5v5.4h10.9v28.5l-9.6,9.5h-4.1v150.5h24.6v234.6h-6.3v17.6h30.1v-17.6h-6.1V692.3h97.2v59.7h17.8
		v-59.7h195.7v5.4h17.8v-25.2l0.9-38.5l62.1,11.5l98.7,36.2c0,0-6.5,39.3-0.8,68.5s10.7,39.4,24.9,60.8
		c11.4,17.2,36.2,37.7,47.4,44.6c11.1,6.9,50.5,20,50.5,20s12.4-44.4,21.2-94.9c8.8-50.5,10.9-74.7,10.9-74.7l15.5-1.5l0.1-32.9
		L2047.7,670.7z"/>
	<path class="st0" d="M1256.7,62.4l-15.9,0v35.3h2.7v4.1h-5.5v-23h-17.8v23.7H525.5v19h-4.1V75.2h-78v4.1h0V82h0v39.3h-27.3v29.8
		h136.8v320H443.4v5.4l0,2.7v33.9h109.4v238.7h-1.4v127.4h-0.1v10.8l-488.5,0.1H2.7v3H0v26.2h2.7V931h1.4v1.4h11V931h2.7l11.6-11.5
		h711v110.8h-8.2v24.1l19.2,0v105.8l-0.1,9.1l-12.2,0.1H410.2l0.1,23.1H739v0.3h46.5v33.9h247.7v-1.4h2.7v1.4h30.1v-4.1h1.4v-61h1.4
		v-5.4h-16.4l-1.4,1.4l-6.8,16.3l-28.7-6.8v-6.8l-9.6-1.4l-1.4,14.9l-42.4-6.8l-1.4-6.8h-9.6l-75.3-47.5l11-59.7h12.3l2.7-1.4v-21.4
		H766.4l0-110.8H1083v7.7h24.9v-7.7h1.6v-26.2h-72v-3H793.8v-10.8l-217.6-0.1l-0.1-14.9l18.5-0.1l-1.3-61.6h-17.2l0.1-4.8l8.2,0.1
		v-46.1h-8.2v-2.7h6.8V126.7l637.2-0.1v83.6h17.8V204h16.7v-23h-16.7v-17.2h2.7v1.7h18.2l0.1,3.5c0,0,5.6-0.6,8.5,4.1
		c1.7,2.7,1.8,6.5,1.8,6.5l3,0.2l0.1,7.4l3.9,0v39.3h57.5v56.8c5.9,0,11.9,0,17.8,0v-56.8h47.1c0.5-18.2,0-36.1-1.3-54h-89.6l0,0
		l-21.5-39.3v-62l34.8-37h76.8c0-11.3,0-22.9,0-34.2h-121.7v40.7h-4.8l-0.3-26.5l-5.2-7.6l-19.8-0.1l-5.1,7.7l-0.1,46.9L1256.7,62.4
		z"/>
</g>
</svg>
